<svg xmlns="http://www.w3.org/2000/svg" viewBox="0 0 136 40">
  <path fill="#ffffff" d="M17.5 1.8v3.4h-5.7v15.7h-4V5.2H2V1.8h15.5zm12.1 5.1c.7.3 1.3.8 1.7 1.4.4.5.6 1.1.7 1.6.1.6.1 1.5.1 2.7v8.3h-3.8v-8.6c0-.8-.1-1.4-.4-1.8-.3-.7-1-1-1.9-1-1 0-1.7.3-2.2 1-.5.7-.8 1.6-.8 2.8v7.6h-3.7v-19H23v6.7c.5-.8 1.1-1.4 1.8-1.7.7-.3 1.4-.5 2.2-.5 1.1 0 1.9.2 2.6.5zm15.3.2c1 .4 1.8 1.1 2.4 2.1.6.8 1 1.8 1.1 2.9.1.6.1 1.6.1 2.8H38.3c.1 1.4.5 2.4 1.5 3 .6.4 1.2.5 2 .5s1.5-.2 2-.6c.3-.2.5-.6.8-1h3.8c-.1.8-.6 1.7-1.4 2.5-1.3 1.4-3 2.1-5.3 2.1-1.9 0-3.5-.6-5-1.7-1.4-1.2-2.2-3-2.2-5.6 0-2.4.6-4.3 1.9-5.6s3-2 5-2c1.4-.1 2.5.2 3.5.6zm-5.6 3.2c-.5.5-.8 1.3-1 2.2h6.4c-.1-1-.4-1.7-1-2.2-.6-.5-1.3-.8-2.2-.8-.9 0-1.6.2-2.2.8zM71.4 15c.1.9.4 1.5.7 2 .7.8 1.8 1.2 3.4 1.2 1 0 1.7-.1 2.3-.3 1.1-.4 1.7-1.1 1.7-2.2 0-.6-.3-1.1-.8-1.5-.6-.3-1.4-.6-2.6-.9l-2.1-.5c-2-.4-3.4-.9-4.2-1.5-1.3-.9-1.9-2.3-1.9-4.1 0-1.7.6-3.1 1.9-4.3s3.1-1.7 5.5-1.7c2 0 3.8.5 5.2 1.6 1.4 1.1 2.2 2.6 2.3 4.6H79c-.1-1.1-.6-2-1.5-2.4-.8-.2-1.5-.4-2.5-.4-1.1 0-1.9.2-2.5.6-.6.4-.9 1-.9 1.7s.3 1.2.9 1.5c.4.3 1.2.6 2.5.9l3.3.8c1.5.3 2.6.8 3.3 1.4 1.1.9 1.7 2.2 1.7 3.9 0 1.7-.7 3.2-2 4.3-1.3 1.2-3.2 1.7-5.7 1.7s-4.5-.6-5.9-1.7c-1.4-1.1-2.2-2.7-2.2-4.7h3.9zm13-5.4V6.9h2V3H90v3.9h2.3v2.6H90V17c0 .6.1.9.2 1.1s.6.2 1.3.2h.7V21l-1.7.1c-1.7.1-2.9-.2-3.6-.9-.4-.4-.6-1.1-.6-2V9.6h-1.9zm22 9.6c-1.2 1.5-3 2.2-5.4 2.2-2.4 0-4.2-.7-5.4-2.2-1.2-1.5-1.8-3.2-1.8-5.3 0-2 .6-3.8 1.8-5.3 1.2-1.5 3-2.2 5.4-2.2 2.4 0 4.2.7 5.4 2.2 1.2 1.5 1.8 3.3 1.8 5.3s-.6 3.8-1.8 5.3zm-2.9-2.1c.6-.8.9-1.9.9-3.3s-.3-2.5-.9-3.3c-.6-.8-1.4-1.1-2.5-1.1s-1.9.4-2.5 1.1c-.6.8-.9 1.9-.9 3.3s.3 2.5.9 3.3c.6.8 1.4 1.1 2.5 1.1 1.1.1 1.9-.3 2.5-1.1zm15.2-10.6h.3v3.8c-.4 0-.7-.1-1.1-.1-1.5 0-2.5.5-3 1.4-.3.5-.4 1.4-.4 2.5v6.7h-3.7v-14h3.5v2.5c.6-.9 1.1-1.6 1.5-1.9.7-.6 1.6-.9 2.7-.9h.2zm11.7.6c1 .4 1.8 1.1 2.4 2.1.6.8 1 1.8 1.1 2.9.1.6.1 1.6.1 2.8h-10.3c.1 1.4.5 2.4 1.5 3 .6.4 1.2.5 2 .5s1.5-.2 2-.6c.3-.2.5-.6.8-1h3.8c-.1.8-.6 1.7-1.4 2.5-1.3 1.4-3 2.1-5.3 2.1-1.9 0-3.5-.6-5-1.7-1.4-1.2-2.2-3-2.2-5.6 0-2.4.6-4.3 1.9-5.6s3-2 5-2c1.5-.1 2.6.2 3.6.6zm-5.5 3.2c-.5.5-.8 1.3-1 2.2h6.4c-.1-1-.4-1.7-1-2.2-.6-.5-1.3-.8-2.2-.8-1 0-1.7.2-2.2.8zM58 7.3c-2.5 0-4.5 2-4.5 4.5s2 4.5 4.5 4.5 4.5-2 4.5-4.5-2-4.5-4.5-4.5z"/>
  <path fill="#ffffff" d="M26.3 34.8c0 .5.1.9.3 1.2.4.6 1 .9 2 .9.4 0 .8-.1 1.2-.2.7-.2 1-.7 1-1.3 0-.5-.1-.8-.4-1-.3-.2-.7-.4-1.4-.5l-1.1-.3c-.7-.2-1.3-.4-1.6-.6-.5-.4-.8-.9-.8-1.6 0-.8.3-1.4.8-1.9s1.3-.7 2.2-.7c.9 0 1.6.2 2.2.7.6.4.9 1.1.9 2.1h-1.1c-.1-.5-.2-.8-.4-1.1-.3-.4-.9-.7-1.7-.7-.7 0-1.1.1-1.4.4-.3.3-.4.6-.4 1s.2.7.5.9c.2.1.7.3 1.5.5l1.2.3c.6.1 1 .3 1.3.5.5.4.8 1 .8 1.8 0 1-.3 1.6-1 2-.7.4-1.5.6-2.4.6-1 0-1.9-.3-2.5-.8-.6-.5-.9-1.3-.9-2.2h1.2zM40.8 29v1h-2.9v7.6h-1.2V30h-2.9v-1h7zm1.8 0H44l2.5 4.1L49 29h1.4l-3.3 5.1v3.5h-1.2v-3.5L42.6 29zm9.9 0h1.2v7.6H58v1h-5.5V29zm7.8 0h6.2v1.1h-5.1v2.6h4.7v1h-4.7v2.9h5.2v1h-6.3V29zm14.4.3c.8.4 1.4 1.2 1.5 2.4H75c-.1-.6-.4-1.1-.9-1.4-.4-.3-1-.4-1.6-.4-.8 0-1.4.3-2 .9-.5.6-.8 1.5-.8 2.7 0 1 .2 1.9.7 2.5s1.2 1 2.2 1c.8 0 1.4-.2 1.9-.7.5-.5.8-1.2.8-2.2h-2.7v-1h3.8v4.6h-.8l-.3-1.1c-.4.4-.7.7-1 .9-.5.3-1.1.4-1.9.4-1 0-1.9-.3-2.6-1-.8-.8-1.2-2-1.2-3.4s.4-2.6 1.2-3.4c.7-.8 1.7-1.2 2.8-1.2.9-.1 1.6 0 2.1.4zm5.8-.3v5.3c0 .6.1 1.1.4 1.6.3.6.9.9 1.8.9 1 0 1.7-.3 2-1 .2-.4.3-.9.3-1.5V29h1.2v4.8c0 1.1-.1 1.9-.4 2.4-.5 1-1.5 1.6-3 1.6s-2.4-.5-3-1.6c-.3-.6-.4-1.4-.4-2.4V29h1.1zm8.8 0h1.2v8.6h-1.2V29zm4.2 0h3.4c1.2 0 2.1.4 2.7 1.3.6.8.9 1.7.9 2.9 0 .9-.2 1.7-.5 2.5-.6 1.3-1.6 2-3.1 2h-3.4V29zm3.2 7.6c.4 0 .7 0 1-.1.4-.2.8-.4 1.1-.9.2-.3.4-.8.5-1.3.1-.3.1-.6.1-.9 0-1.1-.2-1.9-.6-2.5-.4-.6-1.1-.9-2-.9h-2v6.6h1.9zm6.5-7.6h6.2v1.1h-5.1v2.6h4.7v1h-4.7v2.9h5.2v1h-6.3V29z"/>
</svg>
